<mxfile host="Electron" modified="2023-09-21T17:36:12.460Z" agent="Mozilla/5.0 (Windows NT 10.0; Win64; x64) AppleWebKit/537.36 (KHTML, like Gecko) draw.io/21.7.5 Chrome/114.0.5735.289 Electron/25.8.1 Safari/537.36" etag="qkCogMP6As9GgXX9G25P" version="21.7.5" type="device">
  <diagram name="library" id="wyC3Y5XSnXRCpw_W8EnW">
    <mxGraphModel dx="1449" dy="740" grid="1" gridSize="10" guides="1" tooltips="1" connect="1" arrows="1" fold="1" page="1" pageScale="1" pageWidth="850" pageHeight="1100" background="none" math="0" shadow="1">
      <root>
        <mxCell id="0" />
        <mxCell id="1" parent="0" />
        <mxCell id="eP5cgBQOovgBz1lq_Gfg-1" value="Livro" style="whiteSpace=wrap;html=1;align=center;" vertex="1" parent="1">
          <mxGeometry x="370" y="240" width="120" height="50" as="geometry" />
        </mxCell>
        <mxCell id="eP5cgBQOovgBz1lq_Gfg-2" value="Autor" style="whiteSpace=wrap;html=1;align=center;" vertex="1" parent="1">
          <mxGeometry x="40" y="240" width="120" height="50" as="geometry" />
        </mxCell>
        <mxCell id="eP5cgBQOovgBz1lq_Gfg-7" value="Edição" style="ellipse;whiteSpace=wrap;html=1;align=center;fontSize=8;" vertex="1" parent="1">
          <mxGeometry x="459.5" y="196" width="45" height="20" as="geometry" />
        </mxCell>
        <mxCell id="eP5cgBQOovgBz1lq_Gfg-11" value="ISBN" style="ellipse;whiteSpace=wrap;html=1;align=center;fontStyle=4;fontSize=8;" vertex="1" parent="1">
          <mxGeometry x="448.5" y="175" width="40" height="20" as="geometry" />
        </mxCell>
        <mxCell id="eP5cgBQOovgBz1lq_Gfg-12" value="Escreve" style="shape=rhombus;perimeter=rhombusPerimeter;whiteSpace=wrap;html=1;align=center;" vertex="1" parent="1">
          <mxGeometry x="210" y="190" width="100" height="60" as="geometry" />
        </mxCell>
        <mxCell id="eP5cgBQOovgBz1lq_Gfg-14" value="" style="endArrow=none;html=1;rounded=0;exitX=0;exitY=0.5;exitDx=0;exitDy=0;" edge="1" parent="1" source="eP5cgBQOovgBz1lq_Gfg-12" target="eP5cgBQOovgBz1lq_Gfg-2">
          <mxGeometry relative="1" as="geometry">
            <mxPoint x="320" y="264.5" as="sourcePoint" />
            <mxPoint x="160" y="264.5" as="targetPoint" />
            <Array as="points">
              <mxPoint x="210" y="265" />
            </Array>
          </mxGeometry>
        </mxCell>
        <mxCell id="eP5cgBQOovgBz1lq_Gfg-15" value="1" style="resizable=0;html=1;whiteSpace=wrap;align=right;verticalAlign=bottom;" connectable="0" vertex="1" parent="eP5cgBQOovgBz1lq_Gfg-14">
          <mxGeometry x="1" relative="1" as="geometry">
            <mxPoint x="20" as="offset" />
          </mxGeometry>
        </mxCell>
        <mxCell id="eP5cgBQOovgBz1lq_Gfg-16" value="" style="endArrow=none;html=1;rounded=0;exitX=1;exitY=0.5;exitDx=0;exitDy=0;entryX=0;entryY=0.5;entryDx=0;entryDy=0;" edge="1" parent="1" source="eP5cgBQOovgBz1lq_Gfg-12" target="eP5cgBQOovgBz1lq_Gfg-1">
          <mxGeometry relative="1" as="geometry">
            <mxPoint x="260" y="270" as="sourcePoint" />
            <mxPoint x="370" y="270" as="targetPoint" />
            <Array as="points">
              <mxPoint x="310" y="265" />
              <mxPoint x="340" y="265" />
            </Array>
          </mxGeometry>
        </mxCell>
        <mxCell id="eP5cgBQOovgBz1lq_Gfg-17" value="N" style="resizable=0;html=1;whiteSpace=wrap;align=right;verticalAlign=bottom;" connectable="0" vertex="1" parent="eP5cgBQOovgBz1lq_Gfg-16">
          <mxGeometry x="1" relative="1" as="geometry">
            <mxPoint x="-10" as="offset" />
          </mxGeometry>
        </mxCell>
        <mxCell id="eP5cgBQOovgBz1lq_Gfg-19" value="" style="endArrow=none;html=1;rounded=0;entryX=0.643;entryY=-0.004;entryDx=0;entryDy=0;exitX=0;exitY=1;exitDx=0;exitDy=0;entryPerimeter=0;" edge="1" parent="1" source="eP5cgBQOovgBz1lq_Gfg-11" target="eP5cgBQOovgBz1lq_Gfg-1">
          <mxGeometry relative="1" as="geometry">
            <mxPoint x="330" y="190" as="sourcePoint" />
            <mxPoint x="490" y="190" as="targetPoint" />
            <Array as="points" />
          </mxGeometry>
        </mxCell>
        <mxCell id="eP5cgBQOovgBz1lq_Gfg-20" value="" style="endArrow=none;html=1;rounded=0;entryX=0.75;entryY=0;entryDx=0;entryDy=0;exitX=0.216;exitY=0.93;exitDx=0;exitDy=0;exitPerimeter=0;" edge="1" parent="1" source="eP5cgBQOovgBz1lq_Gfg-7">
          <mxGeometry relative="1" as="geometry">
            <mxPoint x="482.8848752646212" y="209.48683298050508" as="sourcePoint" />
            <mxPoint x="460" y="240" as="targetPoint" />
          </mxGeometry>
        </mxCell>
        <mxCell id="eP5cgBQOovgBz1lq_Gfg-21" value="Editora" style="whiteSpace=wrap;html=1;align=center;" vertex="1" parent="1">
          <mxGeometry x="220" y="50" width="100" height="40" as="geometry" />
        </mxCell>
        <mxCell id="eP5cgBQOovgBz1lq_Gfg-28" value="" style="endArrow=none;html=1;rounded=0;entryX=0.5;entryY=0;entryDx=0;entryDy=0;" edge="1" parent="1" source="eP5cgBQOovgBz1lq_Gfg-31" target="eP5cgBQOovgBz1lq_Gfg-1">
          <mxGeometry relative="1" as="geometry">
            <mxPoint x="320" y="69.5" as="sourcePoint" />
            <mxPoint x="425" y="230" as="targetPoint" />
            <Array as="points">
              <mxPoint x="430" y="100" />
            </Array>
          </mxGeometry>
        </mxCell>
        <mxCell id="eP5cgBQOovgBz1lq_Gfg-30" value="N" style="resizable=0;html=1;whiteSpace=wrap;align=right;verticalAlign=bottom;" connectable="0" vertex="1" parent="eP5cgBQOovgBz1lq_Gfg-28">
          <mxGeometry x="1" relative="1" as="geometry">
            <mxPoint x="-5" y="-5" as="offset" />
          </mxGeometry>
        </mxCell>
        <mxCell id="eP5cgBQOovgBz1lq_Gfg-32" value="" style="endArrow=none;html=1;rounded=0;entryX=0.5;entryY=0;entryDx=0;entryDy=0;" edge="1" parent="1" target="eP5cgBQOovgBz1lq_Gfg-31">
          <mxGeometry relative="1" as="geometry">
            <mxPoint x="320" y="69.5" as="sourcePoint" />
            <mxPoint x="430" y="240" as="targetPoint" />
            <Array as="points" />
          </mxGeometry>
        </mxCell>
        <mxCell id="eP5cgBQOovgBz1lq_Gfg-33" value="M" style="resizable=0;html=1;whiteSpace=wrap;align=left;verticalAlign=bottom;" connectable="0" vertex="1" parent="eP5cgBQOovgBz1lq_Gfg-32">
          <mxGeometry x="-1" relative="1" as="geometry">
            <mxPoint x="10" y="1" as="offset" />
          </mxGeometry>
        </mxCell>
        <mxCell id="eP5cgBQOovgBz1lq_Gfg-31" value="Publica" style="shape=rhombus;perimeter=rhombusPerimeter;whiteSpace=wrap;html=1;align=center;" vertex="1" parent="1">
          <mxGeometry x="370" y="100" width="120" height="60" as="geometry" />
        </mxCell>
        <mxCell id="eP5cgBQOovgBz1lq_Gfg-35" value="&lt;p style=&quot;line-height: 60%;&quot;&gt;&lt;font style=&quot;font-size: 8px;&quot;&gt;Examplares&lt;/font&gt;&lt;/p&gt;" style="ellipse;whiteSpace=wrap;html=1;align=center;labelPosition=center;verticalLabelPosition=middle;verticalAlign=middle;horizontal=1;spacingTop=0;spacingBottom=3;" vertex="1" parent="1">
          <mxGeometry x="475" y="217" width="50" height="20" as="geometry" />
        </mxCell>
        <mxCell id="eP5cgBQOovgBz1lq_Gfg-38" value="" style="endArrow=none;html=1;rounded=0;entryX=0;entryY=1;entryDx=0;entryDy=0;exitX=1;exitY=0;exitDx=0;exitDy=0;" edge="1" parent="1" target="eP5cgBQOovgBz1lq_Gfg-35">
          <mxGeometry relative="1" as="geometry">
            <mxPoint x="480" y="240" as="sourcePoint" />
            <mxPoint x="477.3934671123882" y="227.09940842242412" as="targetPoint" />
          </mxGeometry>
        </mxCell>
        <mxCell id="eP5cgBQOovgBz1lq_Gfg-40" value="&lt;font style=&quot;font-size: 7px;&quot;&gt;TODO: Definir com o time que tipo de Entidade/Atributo será o &quot;Período&quot;.&lt;/font&gt;" style="shape=note;size=20;whiteSpace=wrap;html=1;" vertex="1" parent="1">
          <mxGeometry x="490" y="480" width="60" height="90" as="geometry" />
        </mxCell>
        <mxCell id="eP5cgBQOovgBz1lq_Gfg-41" value="Período" style="whiteSpace=wrap;html=1;align=center;" vertex="1" parent="1">
          <mxGeometry x="470" y="610" width="100" height="40" as="geometry" />
        </mxCell>
        <mxCell id="eP5cgBQOovgBz1lq_Gfg-42" value="" style="endArrow=none;html=1;rounded=0;entryX=0.5;entryY=1;entryDx=0;entryDy=0;entryPerimeter=0;exitX=0.5;exitY=0;exitDx=0;exitDy=0;" edge="1" parent="1" source="eP5cgBQOovgBz1lq_Gfg-41" target="eP5cgBQOovgBz1lq_Gfg-40">
          <mxGeometry relative="1" as="geometry">
            <mxPoint x="430" y="600" as="sourcePoint" />
            <mxPoint x="590" y="600" as="targetPoint" />
          </mxGeometry>
        </mxCell>
        <mxCell id="eP5cgBQOovgBz1lq_Gfg-45" value="Usuário" style="whiteSpace=wrap;html=1;align=center;" vertex="1" parent="1">
          <mxGeometry x="680" y="240" width="120" height="50" as="geometry" />
        </mxCell>
        <mxCell id="eP5cgBQOovgBz1lq_Gfg-48" value="Bibliotecário" style="whiteSpace=wrap;html=1;align=center;" vertex="1" parent="1">
          <mxGeometry x="370" y="420" width="120" height="50" as="geometry" />
        </mxCell>
        <mxCell id="eP5cgBQOovgBz1lq_Gfg-57" value="" style="endArrow=none;html=1;rounded=0;exitX=0;exitY=1;exitDx=0;exitDy=0;" edge="1" parent="1" target="eP5cgBQOovgBz1lq_Gfg-45">
          <mxGeometry relative="1" as="geometry">
            <mxPoint x="766" y="197" as="sourcePoint" />
            <mxPoint x="750" y="240" as="targetPoint" />
            <Array as="points" />
          </mxGeometry>
        </mxCell>
        <mxCell id="eP5cgBQOovgBz1lq_Gfg-59" value="&lt;p style=&quot;line-height: 60%;&quot;&gt;&lt;font style=&quot;font-size: 8px;&quot;&gt;Tipo&lt;/font&gt;&lt;/p&gt;" style="ellipse;whiteSpace=wrap;html=1;align=center;labelPosition=center;verticalLabelPosition=middle;verticalAlign=middle;horizontal=1;spacingTop=0;spacingBottom=3;" vertex="1" parent="1">
          <mxGeometry x="740" y="180" width="50" height="20" as="geometry" />
        </mxCell>
        <mxCell id="eP5cgBQOovgBz1lq_Gfg-69" value="" style="endArrow=none;html=1;rounded=0;entryX=0.5;entryY=0;entryDx=0;entryDy=0;exitX=0.5;exitY=1;exitDx=0;exitDy=0;" edge="1" parent="1" source="eP5cgBQOovgBz1lq_Gfg-50" target="eP5cgBQOovgBz1lq_Gfg-48">
          <mxGeometry relative="1" as="geometry">
            <mxPoint x="410" y="290" as="sourcePoint" />
            <mxPoint x="570" y="290" as="targetPoint" />
          </mxGeometry>
        </mxCell>
        <mxCell id="eP5cgBQOovgBz1lq_Gfg-71" value="N" style="resizable=0;html=1;whiteSpace=wrap;align=right;verticalAlign=bottom;" connectable="0" vertex="1" parent="eP5cgBQOovgBz1lq_Gfg-69">
          <mxGeometry x="1" relative="1" as="geometry" />
        </mxCell>
        <mxCell id="eP5cgBQOovgBz1lq_Gfg-72" value="" style="endArrow=none;html=1;rounded=0;entryX=0.5;entryY=0;entryDx=0;entryDy=0;exitX=0.5;exitY=1;exitDx=0;exitDy=0;" edge="1" parent="1" source="eP5cgBQOovgBz1lq_Gfg-1" target="eP5cgBQOovgBz1lq_Gfg-50">
          <mxGeometry relative="1" as="geometry">
            <mxPoint x="430" y="290" as="sourcePoint" />
            <mxPoint x="430" y="420" as="targetPoint" />
          </mxGeometry>
        </mxCell>
        <mxCell id="eP5cgBQOovgBz1lq_Gfg-73" value="M" style="resizable=0;html=1;whiteSpace=wrap;align=left;verticalAlign=bottom;" connectable="0" vertex="1" parent="eP5cgBQOovgBz1lq_Gfg-72">
          <mxGeometry x="-1" relative="1" as="geometry">
            <mxPoint y="20" as="offset" />
          </mxGeometry>
        </mxCell>
        <mxCell id="eP5cgBQOovgBz1lq_Gfg-50" value="Gerencia" style="shape=rhombus;perimeter=rhombusPerimeter;whiteSpace=wrap;html=1;align=center;" vertex="1" parent="1">
          <mxGeometry x="370" y="320" width="120" height="60" as="geometry" />
        </mxCell>
        <mxCell id="eP5cgBQOovgBz1lq_Gfg-82" value="" style="endArrow=none;html=1;rounded=0;entryX=0;entryY=0.5;entryDx=0;entryDy=0;exitX=1;exitY=0.5;exitDx=0;exitDy=0;" edge="1" parent="1" source="eP5cgBQOovgBz1lq_Gfg-61" target="eP5cgBQOovgBz1lq_Gfg-45">
          <mxGeometry relative="1" as="geometry">
            <mxPoint x="490" y="264.66" as="sourcePoint" />
            <mxPoint x="650" y="264.66" as="targetPoint" />
            <Array as="points">
              <mxPoint x="640" y="265" />
            </Array>
          </mxGeometry>
        </mxCell>
        <mxCell id="eP5cgBQOovgBz1lq_Gfg-84" value="N" style="resizable=0;html=1;whiteSpace=wrap;align=right;verticalAlign=bottom;" connectable="0" vertex="1" parent="eP5cgBQOovgBz1lq_Gfg-82">
          <mxGeometry x="1" relative="1" as="geometry">
            <mxPoint x="-10" as="offset" />
          </mxGeometry>
        </mxCell>
        <mxCell id="eP5cgBQOovgBz1lq_Gfg-85" value="" style="endArrow=none;html=1;rounded=0;entryX=0;entryY=0.5;entryDx=0;entryDy=0;" edge="1" parent="1" target="eP5cgBQOovgBz1lq_Gfg-61">
          <mxGeometry relative="1" as="geometry">
            <mxPoint x="490" y="264.66" as="sourcePoint" />
            <mxPoint x="680" y="265" as="targetPoint" />
            <Array as="points">
              <mxPoint x="540" y="265" />
            </Array>
          </mxGeometry>
        </mxCell>
        <mxCell id="eP5cgBQOovgBz1lq_Gfg-86" value="M" style="resizable=0;html=1;whiteSpace=wrap;align=left;verticalAlign=bottom;" connectable="0" vertex="1" parent="eP5cgBQOovgBz1lq_Gfg-85">
          <mxGeometry x="-1" relative="1" as="geometry">
            <mxPoint x="10" as="offset" />
          </mxGeometry>
        </mxCell>
        <mxCell id="eP5cgBQOovgBz1lq_Gfg-61" value="Consulta" style="shape=rhombus;perimeter=rhombusPerimeter;whiteSpace=wrap;html=1;align=center;" vertex="1" parent="1">
          <mxGeometry x="540" y="190" width="100" height="60" as="geometry" />
        </mxCell>
      </root>
    </mxGraphModel>
  </diagram>
</mxfile>
